<mxfile host="app.diagrams.net" modified="2020-12-08T13:54:48.175Z" agent="5.0 (Macintosh; Intel Mac OS X 10_15_6) AppleWebKit/605.1.15 (KHTML, like Gecko) Version/14.0.1 Safari/605.1.15" etag="Ud35T9YLmg9E9kd1z7uh" version="13.11.0" type="github">
  <diagram id="IR_PplZbTVJrm1HBBOYb" name="Page-1">
    <mxGraphModel dx="736" dy="552" grid="1" gridSize="10" guides="1" tooltips="1" connect="1" arrows="1" fold="1" page="1" pageScale="1" pageWidth="850" pageHeight="1100" math="0" shadow="0">
      <root>
        <mxCell id="0" />
        <mxCell id="1" parent="0" />
        <mxCell id="iUbfSdUz5nUS5H7Qf6q6-2" value="" style="html=1;shadow=0;dashed=0;align=center;verticalAlign=middle;shape=mxgraph.arrows2.arrow;dy=0.6;dx=40;notch=0;" vertex="1" parent="1">
          <mxGeometry x="190" y="30" width="80" height="50" as="geometry" />
        </mxCell>
        <mxCell id="iUbfSdUz5nUS5H7Qf6q6-3" value="" style="html=1;shadow=0;dashed=0;align=center;verticalAlign=middle;shape=mxgraph.arrows2.arrow;dy=0.6;dx=40;notch=0;" vertex="1" parent="1">
          <mxGeometry x="190" y="100" width="80" height="50" as="geometry" />
        </mxCell>
        <mxCell id="iUbfSdUz5nUS5H7Qf6q6-7" value="" style="html=1;shadow=0;dashed=0;align=center;verticalAlign=middle;shape=mxgraph.arrows2.arrow;dy=0.6;dx=40;notch=0;" vertex="1" parent="1">
          <mxGeometry x="190" y="170" width="80" height="50" as="geometry" />
        </mxCell>
        <mxCell id="iUbfSdUz5nUS5H7Qf6q6-8" value="" style="html=1;shadow=0;dashed=0;align=center;verticalAlign=middle;shape=mxgraph.arrows2.arrow;dy=0.6;dx=40;notch=0;" vertex="1" parent="1">
          <mxGeometry x="190" y="240" width="80" height="50" as="geometry" />
        </mxCell>
        <mxCell id="iUbfSdUz5nUS5H7Qf6q6-9" value="" style="html=1;shadow=0;dashed=0;align=center;verticalAlign=middle;shape=mxgraph.arrows2.arrow;dy=0.6;dx=40;notch=0;" vertex="1" parent="1">
          <mxGeometry x="190" y="300" width="80" height="50" as="geometry" />
        </mxCell>
        <mxCell id="iUbfSdUz5nUS5H7Qf6q6-10" value="" style="html=1;shadow=0;dashed=0;align=center;verticalAlign=middle;shape=mxgraph.arrows2.arrow;dy=0.6;dx=40;notch=0;" vertex="1" parent="1">
          <mxGeometry x="190" y="370" width="80" height="50" as="geometry" />
        </mxCell>
        <mxCell id="iUbfSdUz5nUS5H7Qf6q6-11" value="" style="html=1;shadow=0;dashed=0;align=center;verticalAlign=middle;shape=mxgraph.arrows2.arrow;dy=0.6;dx=40;notch=0;" vertex="1" parent="1">
          <mxGeometry x="190" y="440" width="80" height="50" as="geometry" />
        </mxCell>
        <mxCell id="iUbfSdUz5nUS5H7Qf6q6-12" value="" style="html=1;shadow=0;dashed=0;align=center;verticalAlign=middle;shape=mxgraph.arrows2.arrow;dy=0.6;dx=40;notch=0;" vertex="1" parent="1">
          <mxGeometry x="190" y="510" width="80" height="50" as="geometry" />
        </mxCell>
        <mxCell id="iUbfSdUz5nUS5H7Qf6q6-13" value="" style="html=1;shadow=0;dashed=0;align=center;verticalAlign=middle;shape=mxgraph.arrows2.arrow;dy=0.6;dx=40;notch=0;" vertex="1" parent="1">
          <mxGeometry x="190" y="580" width="80" height="50" as="geometry" />
        </mxCell>
        <mxCell id="iUbfSdUz5nUS5H7Qf6q6-14" value="&lt;h2&gt;고객&lt;/h2&gt;" style="text;html=1;align=center;verticalAlign=middle;resizable=0;points=[];autosize=1;fontFamily=Nanum Gothic Coding;fontSource=https%3A%2F%2Ffonts.googleapis.com%2Fcss%3Ffamily%3DNanum%2BGothic%2BCoding;" vertex="1" parent="1">
          <mxGeometry x="95" y="30" width="50" height="50" as="geometry" />
        </mxCell>
        <mxCell id="iUbfSdUz5nUS5H7Qf6q6-15" value="&lt;h2&gt;주문&lt;/h2&gt;" style="text;html=1;align=center;verticalAlign=middle;resizable=0;points=[];autosize=1;fontFamily=Nanum Gothic Coding;fontSource=https%3A%2F%2Ffonts.googleapis.com%2Fcss%3Ffamily%3DNanum%2BGothic%2BCoding;" vertex="1" parent="1">
          <mxGeometry x="95" y="100" width="50" height="50" as="geometry" />
        </mxCell>
        <mxCell id="iUbfSdUz5nUS5H7Qf6q6-16" value="&lt;h2&gt;&lt;font data-font-src=&quot;https://fonts.googleapis.com/css?family=Nanum+Gothic+Coding&quot;&gt;거래항목&lt;/font&gt;&lt;span style=&quot;display: inline;&quot;&gt;&lt;/span&gt;&lt;span style=&quot;display: inline;&quot;&gt;&lt;/span&gt;&lt;/h2&gt;" style="text;html=1;align=center;verticalAlign=middle;resizable=0;points=[];autosize=1;fontFamily=Nanum Gothic Coding;fontSource=https%3A%2F%2Ffonts.googleapis.com%2Fcss%3Ffamily%3DNanum%2BGothic%2BCoding;" vertex="1" parent="1">
          <mxGeometry x="75" y="170" width="90" height="50" as="geometry" />
        </mxCell>
        <mxCell id="iUbfSdUz5nUS5H7Qf6q6-17" value="&lt;h2&gt;메뉴&lt;/h2&gt;" style="text;html=1;align=center;verticalAlign=middle;resizable=0;points=[];autosize=1;fontFamily=Nanum Gothic Coding;fontSource=https%3A%2F%2Ffonts.googleapis.com%2Fcss%3Ffamily%3DNanum%2BGothic%2BCoding;" vertex="1" parent="1">
          <mxGeometry x="95" y="240" width="50" height="50" as="geometry" />
        </mxCell>
        <mxCell id="iUbfSdUz5nUS5H7Qf6q6-18" value="&lt;h2&gt;레시피&lt;/h2&gt;" style="text;html=1;align=center;verticalAlign=middle;resizable=0;points=[];autosize=1;fontFamily=Nanum Gothic Coding;fontSource=https%3A%2F%2Ffonts.googleapis.com%2Fcss%3Ffamily%3DNanum%2BGothic%2BCoding;" vertex="1" parent="1">
          <mxGeometry x="85" y="300" width="70" height="50" as="geometry" />
        </mxCell>
        <mxCell id="iUbfSdUz5nUS5H7Qf6q6-19" value="&lt;h2&gt;재료재고&lt;/h2&gt;" style="text;html=1;align=center;verticalAlign=middle;resizable=0;points=[];autosize=1;fontFamily=Nanum Gothic Coding;fontSource=https%3A%2F%2Ffonts.googleapis.com%2Fcss%3Ffamily%3DNanum%2BGothic%2BCoding;" vertex="1" parent="1">
          <mxGeometry x="75" y="370" width="90" height="50" as="geometry" />
        </mxCell>
        <mxCell id="iUbfSdUz5nUS5H7Qf6q6-20" value="&lt;h2&gt;공급업체재료&lt;/h2&gt;" style="text;html=1;align=center;verticalAlign=middle;resizable=0;points=[];autosize=1;fontFamily=Nanum Gothic Coding;fontSource=https%3A%2F%2Ffonts.googleapis.com%2Fcss%3Ffamily%3DNanum%2BGothic%2BCoding;" vertex="1" parent="1">
          <mxGeometry x="55" y="440" width="130" height="50" as="geometry" />
        </mxCell>
        <mxCell id="iUbfSdUz5nUS5H7Qf6q6-21" value="&lt;h2&gt;공급업체&lt;/h2&gt;" style="text;html=1;align=center;verticalAlign=middle;resizable=0;points=[];autosize=1;fontFamily=Nanum Gothic Coding;fontSource=https%3A%2F%2Ffonts.googleapis.com%2Fcss%3Ffamily%3DNanum%2BGothic%2BCoding;" vertex="1" parent="1">
          <mxGeometry x="75" y="510" width="90" height="50" as="geometry" />
        </mxCell>
        <mxCell id="iUbfSdUz5nUS5H7Qf6q6-22" value="&lt;h2&gt;&lt;font face=&quot;Nanum Gothic Coding&quot; data-font-src=&quot;https://fonts.googleapis.com/css?family=Nanum+Gothic+Coding&quot;&gt;고객&lt;/font&gt;&lt;/h2&gt;" style="text;html=1;align=center;verticalAlign=middle;resizable=0;points=[];autosize=1;" vertex="1" parent="1">
          <mxGeometry x="95" y="580" width="50" height="50" as="geometry" />
        </mxCell>
        <mxCell id="iUbfSdUz5nUS5H7Qf6q6-23" value="&lt;h2&gt;주소&lt;/h2&gt;" style="text;html=1;align=center;verticalAlign=middle;resizable=0;points=[];autosize=1;fontFamily=Nanum Gothic Coding;fontSource=https%3A%2F%2Ffonts.googleapis.com%2Fcss%3Ffamily%3DNanum%2BGothic%2BCoding;" vertex="1" parent="1">
          <mxGeometry x="340" y="30" width="50" height="50" as="geometry" />
        </mxCell>
        <mxCell id="iUbfSdUz5nUS5H7Qf6q6-24" value="&lt;h2&gt;주문&lt;/h2&gt;" style="text;html=1;align=center;verticalAlign=middle;resizable=0;points=[];autosize=1;fontFamily=Nanum Gothic Coding;fontSource=https%3A%2F%2Ffonts.googleapis.com%2Fcss%3Ffamily%3DNanum%2BGothic%2BCoding;" vertex="1" parent="1">
          <mxGeometry x="340" y="100" width="50" height="50" as="geometry" />
        </mxCell>
        <mxCell id="iUbfSdUz5nUS5H7Qf6q6-25" value="&lt;h2&gt;&lt;font data-font-src=&quot;https://fonts.googleapis.com/css?family=Nanum+Gothic+Coding&quot;&gt;거래항목&lt;/font&gt;&lt;span style=&quot;display: inline;&quot;&gt;&lt;/span&gt;&lt;span style=&quot;display: inline;&quot;&gt;&lt;/span&gt;&lt;/h2&gt;" style="text;html=1;align=center;verticalAlign=middle;resizable=0;points=[];autosize=1;fontFamily=Nanum Gothic Coding;fontSource=https%3A%2F%2Ffonts.googleapis.com%2Fcss%3Ffamily%3DNanum%2BGothic%2BCoding;" vertex="1" parent="1">
          <mxGeometry x="320" y="170" width="90" height="50" as="geometry" />
        </mxCell>
        <mxCell id="iUbfSdUz5nUS5H7Qf6q6-26" value="&lt;h2&gt;메뉴&lt;/h2&gt;" style="text;html=1;align=center;verticalAlign=middle;resizable=0;points=[];autosize=1;fontFamily=Nanum Gothic Coding;fontSource=https%3A%2F%2Ffonts.googleapis.com%2Fcss%3Ffamily%3DNanum%2BGothic%2BCoding;" vertex="1" parent="1">
          <mxGeometry x="340" y="240" width="50" height="50" as="geometry" />
        </mxCell>
        <mxCell id="iUbfSdUz5nUS5H7Qf6q6-27" value="&lt;h2&gt;레시피&lt;/h2&gt;" style="text;html=1;align=center;verticalAlign=middle;resizable=0;points=[];autosize=1;fontFamily=Nanum Gothic Coding;fontSource=https%3A%2F%2Ffonts.googleapis.com%2Fcss%3Ffamily%3DNanum%2BGothic%2BCoding;" vertex="1" parent="1">
          <mxGeometry x="330" y="300" width="70" height="50" as="geometry" />
        </mxCell>
        <mxCell id="iUbfSdUz5nUS5H7Qf6q6-28" value="&lt;h2&gt;재료재고&lt;/h2&gt;" style="text;html=1;align=center;verticalAlign=middle;resizable=0;points=[];autosize=1;fontFamily=Nanum Gothic Coding;fontSource=https%3A%2F%2Ffonts.googleapis.com%2Fcss%3Ffamily%3DNanum%2BGothic%2BCoding;" vertex="1" parent="1">
          <mxGeometry x="320" y="370" width="90" height="50" as="geometry" />
        </mxCell>
        <mxCell id="iUbfSdUz5nUS5H7Qf6q6-29" value="&lt;h2&gt;공급업체재료&lt;/h2&gt;" style="text;html=1;align=center;verticalAlign=middle;resizable=0;points=[];autosize=1;fontFamily=Nanum Gothic Coding;fontSource=https%3A%2F%2Ffonts.googleapis.com%2Fcss%3Ffamily%3DNanum%2BGothic%2BCoding;" vertex="1" parent="1">
          <mxGeometry x="300" y="440" width="130" height="50" as="geometry" />
        </mxCell>
        <mxCell id="iUbfSdUz5nUS5H7Qf6q6-30" value="&lt;h2&gt;공급업체&lt;/h2&gt;" style="text;html=1;align=center;verticalAlign=middle;resizable=0;points=[];autosize=1;fontFamily=Nanum Gothic Coding;fontSource=https%3A%2F%2Ffonts.googleapis.com%2Fcss%3Ffamily%3DNanum%2BGothic%2BCoding;" vertex="1" parent="1">
          <mxGeometry x="320" y="510" width="90" height="50" as="geometry" />
        </mxCell>
        <mxCell id="iUbfSdUz5nUS5H7Qf6q6-31" value="&lt;h2&gt;&lt;font face=&quot;Nanum Gothic Coding&quot; data-font-src=&quot;https://fonts.googleapis.com/css?family=Nanum+Gothic+Coding&quot;&gt;고객&lt;/font&gt;&lt;/h2&gt;" style="text;html=1;align=center;verticalAlign=middle;resizable=0;points=[];autosize=1;" vertex="1" parent="1">
          <mxGeometry x="340" y="580" width="50" height="50" as="geometry" />
        </mxCell>
      </root>
    </mxGraphModel>
  </diagram>
</mxfile>
